
                        <!-- {/* GitHub */} -->
                        <svg className="w-6 h-6" xmlns="http://www.w3.org/2000/svg" viewBox="0 0 496 512" fill="currentColor">
                            <path d="M165.9 397.4c0 2-2.3 3.6-5.2 3.6-3.3.3-5.6-1.3-5.6-3.6 0-2 2.3-3.6 5.2-3.6 3-.3 5.6 1.3 5.6 3.6zm-31.1-4.5c-.7 2 1.3 4.3 4.3 4.9 2.6 1 5.6 0 6.2-2s-1.3-4.3-4.3-5.2c-2.6-.7-5.5.3-6.2 2.3zm44.2-1.7c-2.9.7-4.9 2.6-4.6 4.9.3 2 2.9 3.3 5.9 2.6 2.9-.7 4.9-2.6 4.6-4.6-.3-1.9-3-3.2-5.9-2.9zM244.8 8C106.1 8 0 113.3 0 252c0 110.9 69.8 205.8 169.5 239.2 12.8 2.3 17.3-5.6 17.3-12.1 0-6.2-.3-40.4-.3-61.4 0 0-70 15-84.7-29.8 0 0-11.4-29.1-27.8-36.6 0 0-22.9-15.7 1.6-15.4 0 0 24.9 2 38.6 25.8 21.9 38.6 58.6 27.5 72.9 20.9 2.3-16 8.8-27.1 16-33.7-55.9-6.2-112.3-14.3-112.3-110.5 0-27.5 7.6-41.3 23.6-58.9-2.6-6.5-11.1-33.3 2.6-67.9 20.9-6.5 69 27 69 27 20-5.6 41.5-8.5 62.8-8.5s42.8 2.9 62.8 8.5c0 0 48.1-33.6 69-27 13.7 34.7 5.2 61.4 2.6 67.9 16 17.7 25.8 31.5 25.8 58.9 0 96.5-58.9 104.2-114.8 110.5 9.2 7.9 17 22.9 17 46.4 0 33.7-.3 75.4-.3 83.6 0 6.5 4.6 14.4 17.3 12.1C428.2 457.8 496 362.9 496 252 496 113.3 383.5 8 244.8 8zM97.2 352.9c-1.3 1-1 3.3.7 5.2 1.6 1.6 3.9 2.3 5.2 1 1.3-1 1-3.3-.7-5.2-1.6-1.6-3.9-2.3-5.2-1zm-10.8-8.1c-.7 1.3.3 2.9 2.3 3.9 1.6 1 3.6.7 4.3-.7.7-1.3-.3-2.9-2.3-3.9-2-.6-3.6-.3-4.3.7zm32.4 35.6c-1.6 1.3-1 4.3 1.3 6.2 2.3 2.3 5.2 2.6 6.5 1 1.3-1.3.7-4.3-1.3-6.2-2.2-2.3-5.2-2.6-6.5-1zm-11.4-14.7c-1.6 1-1.6 3.6 0 5.9 1.6 2.3 4.3 3.3 5.6 2.3 1.6-1.3 1.6-3.9 0-6.2-1.4-2.3-4-3.3-5.6-2z" />
                        </svg>

                        <!-- {/* // LinkedI */} -->
                        <svg className="w-6 h-6" xmlns="http://www.w3.org/2000/svg" viewBox="0 0 448 512" fill="currentColor">
                            <path d="M416 32H31.9C14.3 32 0 46.5 0 64.3v383.4C0 465.5 14.3 480 31.9 480H416c17.6 0 32-14.5 32-32.3V64.3c0-17.8-14.4-32.3-32-32.3zM135.4 416H69V202.2h66.5V416zm-33.2-243c-21.3 0-38.5-17.3-38.5-38.5S80.9 96 102.2 96c21.2 0 38.5 17.3 38.5 38.5 0 21.3-17.2 38.5-38.5 38.5zm282.1 243h-66.4V312c0-24.8-.5-56.7-34.5-56.7-34.6 0-39.9 27-39.9 54.9V416h-66.4V202.2h63.7v29.2h.9c8.9-16.8 30.6-34.5 62.9-34.5 67.2 0 79.7 44.3 79.7 101.9V416z" />
                        </svg>

                        <!-- {/* // Twitter /  */} -->
                        <svg className="w-6 h-6" xmlns="http://www.w3.org/2000/svg" viewBox="0 0 512 512" fill="currentColor">
                            <path d="M389.2 48h70.6L305.6 224.2 487 464H345L233.7 318.6 106.5 464H35.8L200.7 275.5 26.8 48H172.4L272.9 180.9 389.2 48zM364.4 421.8h39.1L151.1 88h-42L364.4 421.8z" />
                        </svg>

                        <!-- {/* // Faceboo */} -->
                        <svg className="w-6 h-6" xmlns="http://www.w3.org/2000/svg" viewBox="0 0 512 512" fill="currentColor">
                            <path d="M504 256C504 119 393 8 256 8S8 119 8 256c0 123.78 90.69 226.38 209.25 245V327.69h-63V256h63v-54.64c0-62.15 37-96.48 93.67-96.48 27.14 0 55.52 4.84 55.52 4.84v61h-31.28c-30.8 0-40.41 19.12-40.41 38.73V256h68.78l-11 71.69h-57.78V501C413.31 482.38 504 379.78 504 256z" />
                        </svg>

                        <!-- {/* // Instagra */} -->
                        <svg className="w-6 h-6" xmlns="http://www.w3.org/2000/svg" viewBox="0 0 448 512" fill="currentColor">
                            <path d="M224.1 141c-63.6 0-114.9 51.3-114.9 114.9s51.3 114.9 114.9 114.9S339 319.5 339 255.9 287.7 141 224.1 141zm0 189.6c-41.1 0-74.7-33.5-74.7-74.7s33.5-74.7 74.7-74.7 74.7 33.5 74.7 74.7-33.6 74.7-74.7 74.7zm146.4-194.3c0 14.9-12 26.8-26.8 26.8-14.9 0-26.8-12-26.8-26.8s12-26.8 26.8-26.8 26.8 12 26.8 26.8zm76.1 27.2c-1.7-35.9-9.9-67.7-36.2-93.9-26.2-26.2-58-34.4-93.9-36.2-37-2.1-147.9-2.1-184.9 0-35.8 1.7-67.6 9.9-93.9 36.1s-34.4 58-36.2 93.9c-2.1 37-2.1 147.9 0 184.9 1.7 35.9 9.9 67.7 36.2 93.9s58 34.4 93.9 36.2c37 2.1 147.9 2.1 184.9 0 35.9-1.7 67.7-9.9 93.9-36.2 26.2-26.2 34.4-58 36.2-93.9 2.1-37 2.1-147.8 0-184.8zM398.8 388c-7.8 19.6-22.9 34.7-42.6 42.6-29.5 11.7-99.5 9-132.1 9s-102.7 2.6-132.1-9c-19.6-7.8-34.7-22.9-42.6-42.6-11.7-29.5-9-99.5-9-132.1s-2.6-102.7 9-132.1c7.8-19.6 22.9-34.7 42.6-42.6 29.5-11.7 99.5-9 132.1-9s102.7-2.6 132.1 9c19.6 7.8 34.7 22.9 42.6 42.6 11.7 29.5 9 99.5 9 132.1s2.7 102.7-9 132.1z" />
                        </svg>

                        <!-- {/* // YouTub */} -->
                        <svg className="w-6 h-6" xmlns="http://www.w3.org/2000/svg" viewBox="0 0 576 512" fill="currentColor">
                            <path d="M549.655 124.083c-6.281-23.65-24.787-42.276-48.284-48.597C458.781 64 288 64 288 64S117.22 64 74.629 75.486c-23.497 6.322-42.003 24.947-48.284 48.597-11.412 42.867-11.412 132.305-11.412 132.305s0 89.438 11.412 132.305c6.281 23.65 24.787 41.5 48.284 47.821C117.22 448 288 448 288 448s170.78 0 213.371-11.486c23.497-6.321 42.003-24.171 48.284-47.821 11.412-42.867 11.412-132.305 11.412-132.305s0-89.438-11.412-132.305zm-317.51 213.508V175.185l142.739 81.205-142.739 81.201z" />
                        </svg>

                        <!-- {/* // Pinteres */} -->
                        <svg className="w-6 h-6" xmlns="http://www.w3.org/2000/svg" viewBox="0 0 496 512" fill="currentColor">
                            <path d="M496 256c0 137-111 248-248 248-25.6 0-50.2-3.9-73.4-11.1 10.1-16.5 25.2-43.5 30.8-65 3-11.6 15.4-59 15.4-59 8.1 15.4 31.7 28.5 56.8 28.5 74.8 0 128.7-68.8 128.7-154.3 0-81.9-66.9-143.2-152.9-143.2-107 0-163.9 71.8-163.9 150.1 0 36.4 19.4 81.7 50.3 96.1 4.7 2.2 7.2 1.2 8.3-3.3.8-3.4 5-20.3 6.9-28.1.6-2.5.3-4.7-1.7-7.1-10.1-12.5-18.3-35.3-18.3-56.6 0-54.7 41.4-107.6 112-107.6 60.9 0 103.6 41.5 103.6 100.9 0 67.1-33.9 113.6-78 113.6-24.3 0-42.6-20.1-36.7-44.8 7-29.5 20.5-61.3 20.5-82.6 0-19-10.2-34.9-31.4-34.9-24.9 0-44.9 25.7-44.9 60.2 0 22 7.4 36.8 7.4 36.8s-24.5 103.8-29 123.2c-5 21.4-3 51.6-.9 71.2C65.4 450.9 0 361.1 0 256 0 119 111 8 248 8s248 111 248 248z" />
                        </svg>

                        <!-- {/* // WhatsAp */} -->
                        <svg className="w-6 h-6" xmlns="http://www.w3.org/2000/svg" viewBox="0 0 448 512" fill="currentColor">
                            <path d="M380.9 97.1C339 55.1 283.2 32 223.9 32c-122.4 0-222 99.6-222 222 0 39.1 10.2 77.3 29.6 111L0 480l117.7-30.9c32.4 17.7 68.9 27 106.1 27h.1c122.3 0 224.1-99.6 224.1-222 0-59.3-25.2-115-67.1-157zm-157 341.6c-33.2 0-65.7-8.9-94-25.7l-6.7-4-69.8 18.3L72 359.2l-4.4-7c-18.5-29.4-28.2-63.3-28.2-98.2 0-101.7 82.8-184.5 184.6-184.5 49.3 0 95.6 19.2 130.4 54.1 34.8 34.9 56.2 81.2 56.1 130.5 0 101.8-84.9 184.6-186.6 184.6zm101.2-138.2c-5.5-2.8-32.8-16.2-37.9-18-5.1-1.9-8.8-2.8-12.5 2.8-3.7 5.6-14.3 18-17.6 21.8-3.2 3.7-6.5 4.2-12 1.4-32.6-16.3-54-29.1-75.5-66-5.7-9.8 5.7-9.1 16.3-30.3 1.8-3.7.9-6.9-.5-9.7-1.4-2.8-12.5-30.1-17.1-41.2-4.5-10.8-9.1-9.3-12.5-9.5-3.2-.2-6.9-.2-10.6-.2-3.7 0-9.7 1.4-14.8 6.9-5.1 5.6-19.4 19-19.4 46.3 0 27.3 19.9 53.7 22.6 57.4 2.8 3.7 39.1 59.7 94.8 83.8 35.2 15.2 49 16.5 66.6 13.9 10.7-1.6 32.8-13.4 37.4-26.4 4.6-13 4.6-24.1 3.2-26.4-1.3-2.5-5-3.9-10.5-6.6z" />
                        </svg>

                        <!-- {/* // Reddi */} -->
                        <svg className="w-6 h-6" xmlns="http://www.w3.org/2000/svg" viewBox="0 0 512 512" fill="currentColor">
                            <path d="M201.5 305.5c-13.8 0-24.9-11.1-24.9-24.6 0-13.8 11.1-24.9 24.9-24.9 13.6 0 24.6 11.1 24.6 24.9 0 13.6-11.1 24.6-24.6 24.6zM504 256c0 137-111 248-248 248S8 393 8 256 119 8 256 8s248 111 248 248zm-132.3-41.2c-9.4 0-17.7 3.9-23.8 10-22.4-15.5-52.6-25.5-86.1-26.6l17.4-78.3 55.4 12.5c0 13.6 11.1 24.6 24.6 24.6 13.8 0 24.9-11.3 24.9-24.9s-11.1-24.9-24.9-24.9c-9.7 0-18 5.8-22.1 13.8l-61.2-13.6c-3-.8-6.1 1.4-6.9 4.4l-19.1 86.4c-33.2 1.4-63.1 11.3-85.5 26.8-6.1-6.4-14.7-10.2-24.1-10.2-34.9 0-46.3 46.9-14.4 62.8-1.1 5-1.7 10.2-1.7 15.5 0 52.6 59.2 95.2 132 95.2 73.1 0 132.3-42.6 132.3-95.2 0-5.3-.6-10.8-1.9-15.8 31.3-16 19.8-62.5-14.9-62.5zM302.8 331c-18.2 18.2-76.1 17.9-93.6 0-2.2-2.2-6.1-2.2-8.3 0-2.5 2.5-2.5 6.4 0 8.6 22.8 22.8 87.3 22.8 110.2 0 2.5-2.2 2.5-6.1 0-8.6-2.2-2.2-6.1-2.2-8.3 0zm7.7-75c-13.6 0-24.6 11.1-24.6 24.9 0 13.6 11.1 24.6 24.6 24.6 13.8 0 24.9-11.1 24.9-24.6 0-13.8-11-24.9-24.9-24.9z" />
                        </svg>

                        <!-- {/* // TikTo */} -->
                        <svg className="w-6 h-6" xmlns="http://www.w3.org/2000/svg" viewBox="0 0 448 512" fill="currentColor">
                            <path d="M448,209.91a210.06,210.06,0,0,1-122.77-39.25V349.38A162.55,162.55,0,1,1,185,188.31V278.2a74.62,74.62,0,1,0,52.23,71.18V0l88,0a121.18,121.18,0,0,0,1.86,22.17h0A122.18,122.18,0,0,0,381,102.39a121.43,121.43,0,0,0,67,20.14Z" />
                        </svg>

                        <!-- {/* // Snapcha */} -->
                        <svg className="w-6 h-6" xmlns="http://www.w3.org/2000/svg" viewBox="0 0 512 512" fill="currentColor">
                            <path d="M496.926,366.6c-3.373-9.176-9.8-14.086-17.112-18.153-1.376-.806-2.641-1.451-3.72-1.947-2.182-1.128-4.414-2.22-6.634-3.373-22.8-12.09-40.609-27.341-52.959-45.42a102.889,102.889,0,0,1-9.089-16.12c-1.054-3.013-1-4.724-.248-6.287a10.221,10.221,0,0,1,2.914-3.038c3.918-2.591,7.96-5.22,10.7-6.993,4.885-3.162,8.754-5.667,11.246-7.44,9.362-6.547,15.909-13.5,20-21.278a42.371,42.371,0,0,0,2.1-35.191c-6.2-16.318-21.613-26.449-40.287-26.449a55.543,55.543,0,0,0-11.718,1.24c-1.029.224-2.059.459-3.063.72.174-11.16-.074-22.94-1.066-34.534-3.522-40.758-17.794-62.123-32.674-79.16A130.167,130.167,0,0,0,332.1,36.443C309.515,23.547,283.91,17,256,17S202.6,23.547,180,36.443a129.735,129.735,0,0,0-33.281,26.783c-14.88,17.038-29.152,38.4-32.673,79.161-.992,11.594-1.24,23.435-1.079,34.533-1-.26-2.021-.5-3.051-.719a55.461,55.461,0,0,0-11.717-1.24c-18.687,0-34.125,10.131-40.3,26.449a42.423,42.423,0,0,0,2.046,35.228c4.105,7.774,10.652,14.731,20.014,21.278,2.48,1.736,6.361,4.24,11.246,7.44,2.641,1.711,6.5,4.216,10.28,6.72a11.054,11.054,0,0,1,3.3,3.311c.794,1.624.818,3.373-.36,6.6a102.02,102.02,0,0,1-8.94,15.785c-12.077,17.669-29.363,32.648-51.434,44.639-2.542,1.389-4.893,2.4-7.115,3.539-1.066.495-2.307,1.14-3.683,1.947-7.314,4.067-13.738,9.016-17.112,18.153-1.785,4.8-1.847,10.1-.186,15.878,4.057,14.043,16.5,18.88,27.3,22.641,3.706,1.285,7.2,2.5,10.1,3.772a13.112,13.112,0,0,1,3.476,1.2c2.859,2.45,2.809,5.025,7.527,9.546a31.521,31.521,0,0,0,7.675,5.3,50.143,50.143,0,0,0,25.063,7.775h.124a57.039,57.039,0,0,0,24.938-7.025,20.587,20.587,0,0,0,6.85-10.495l.111-.917c.174-.62.211-.214.472-.214a1.5,1.5,0,0,1,.681.062l.793.236c4.817,1.591,10.147,3.372,16.968,3.372a36.914,36.914,0,0,0,8.76-.918,39.21,39.21,0,0,0,18.012-9.471,40.75,40.75,0,0,1,28.3-11.419h.14a41.112,41.112,0,0,1,28.177,11.419,39.653,39.653,0,0,0,18.149,9.471,37.156,37.156,0,0,0,8.76.918,42.471,42.471,0,0,0,16.931-3.373l.668-.223c.274-.49.386-.049.585-.049s.473.05.722.214c.037.446.086.669.138.917A20.528,20.528,0,0,0,360.5,445.373,57.764,57.764,0,0,0,385.563,452.4a53.862,53.862,0,0,0,25.826-8.001,23.669,23.669,0,0,0,6.812-5.222c4.631-4.372,4.768-7.023,7.539-9.409a10.624,10.624,0,0,1,3.054-1.062c2.894-1.245,6.376-2.472,10.082-3.758,11.118-3.885,22.809-8.417,27.177-22.81A27.951,27.951,0,0,0,496.926,366.6Z" />
                        </svg>

                        <!-- {/* // Telegra */} -->
                        <svg className="w-6 h-6" xmlns="http://www.w3.org/2000/svg" viewBox="0 0 496 512" fill="currentColor">
                            <path d="M248,8C111.033,8,0,119.033,0,256S111.033,504,248,504,496,392.967,496,256,384.967,8,248,8ZM362.952,176.66c-3.732,39.215-19.881,134.378-28.1,178.3-3.476,18.584-10.322,24.816-16.948,25.425-14.4,1.326-25.338-9.517-39.287-18.661-21.827-14.308-34.158-23.215-55.346-37.177-24.485-16.135-8.612-25,5.342-39.5,3.652-3.793,67.107-61.51,68.335-66.746.153-.655.3-3.1-1.154-4.384s-3.59-.849-5.135-.5q-3.283.746-104.608,69.142-14.845,10.194-26.894,9.934c-8.855-.191-25.888-5.006-38.551-9.123-15.531-5.048-27.875-7.717-26.8-16.291q.84-6.7,18.45-13.7,108.446-47.248,144.628-62.3c68.872-28.647,83.183-33.623,92.511-33.789,2.052-.034,6.639.474,9.61,2.885a10.452,10.452,0,0,1,3.53,6.716A43.765,43.765,0,0,1,362.952,176.66Z" />
                        </svg>